<svg width="96" height="96" viewBox="0 0 96 96" fill="none" xmlns="http://www.w3.org/2000/svg">
<path d="M48 96C74.5097 96 96 74.5097 96 48C96 21.4903 74.5097 0 48 0C21.4903 0 0 21.4903 0 48C0 74.5097 21.4903 96 48 96Z" fill="white"/>
<path fill-rule="evenodd" clip-rule="evenodd" d="M82.7938 14.9333C80.0921 12.0915 77.046 9.58031 73.7223 7.46667H22.2778C18.954 9.58031 15.9079 12.0915 13.2063 14.9333H82.7938ZM92.4567 29.8667C91.3903 27.2549 90.1004 24.7581 88.6108 22.4H7.38919C5.89961 24.7581 4.60972 27.2549 3.54331 29.8667L92.4567 29.8667ZM94.8106 37.3333C95.3607 39.7577 95.7273 42.2517 95.895 44.8H0.10498C0.272713 42.2517 0.63932 39.7577 1.18943 37.3333H94.8106ZM94.5556 59.7333C95.1639 57.3122 95.5882 54.8181 95.813 52.2667H0.187045C0.411779 54.8181 0.836136 57.3122 1.4444 59.7333H94.5556ZM92.006 67.2C90.8617 69.819 89.4904 72.3162 87.9171 74.6667H8.08293C6.50958 72.3162 5.13833 69.819 3.99402 67.2H92.006ZM71.9627 89.6C75.5415 87.5341 78.8288 85.0196 81.7478 82.1333H14.2522C17.1712 85.0196 20.4585 87.5341 24.0373 89.6H71.9627Z" fill="white"/>
<path fill-rule="evenodd" clip-rule="evenodd" d="M48 0C57.4635 0 66.2873 2.73866 73.7222 7.46667H48V0ZM48 22.4L88.6108 22.4C86.9181 19.7203 84.9674 17.2198 82.7937 14.9333L48 14.9333V22.4ZM94.8106 37.3333H48V29.8667H92.4567C93.4358 32.2648 94.2266 34.7598 94.8106 37.3333ZM0 48C0 49.4379 0.0632223 50.861 0.187039 52.2667H95.813C95.9368 50.861 96 49.4379 96 48C96 46.9247 95.9646 45.8577 95.895 44.8H48V48H0ZM92.006 67.2C93.0517 64.8066 93.9079 62.3113 94.5556 59.7333H1.44439C2.09208 62.3113 2.94828 64.8066 3.99402 67.2H92.006ZM87.9171 74.6667C86.1137 77.3608 84.0448 79.8621 81.7478 82.1333H14.2522C11.9552 79.8621 9.88631 77.3608 8.08293 74.6667H87.9171ZM48 96C56.7275 96 64.911 93.6708 71.9627 89.6H24.0373C31.089 93.6708 39.2725 96 48 96Z" fill="#CF1E2B"/>
<path d="M48 0C21.4903 0 0 21.4903 0 48H48V0Z" fill="#003399"/>
<path d="M18.3543 18.3801L16.8993 19.2L17.1772 17.4633L16 16.2334L17.6268 15.9801L18.3543 14.4L19.0818 15.9801L20.7086 16.2334L19.5315 17.4633L19.8094 19.2L18.3543 18.3801Z" fill="white"/>
<path d="M18.3543 26.9134L16.8993 27.7333L17.1772 25.9967L16 24.7668L17.6268 24.5134L18.3543 22.9333L19.0818 24.5134L20.7086 24.7668L19.5315 25.9967L19.8094 27.7333L18.3543 26.9134Z" fill="white"/>
<path d="M12.4876 23.7134L11.0326 24.5333L11.3105 22.7967L10.1333 21.5667L11.7601 21.3134L12.4876 19.7333L13.2151 21.3134L14.8419 21.5667L13.6648 22.7967L13.9427 24.5333L12.4876 23.7134Z" fill="white"/>
<path d="M11.9544 31.7134L10.4994 32.5333L10.7773 30.7967L9.6001 29.5668L11.2269 29.3134L11.9544 27.7333L12.6819 29.3134L14.3087 29.5668L13.1316 30.7967L13.4095 32.5333L11.9544 31.7134Z" fill="white"/>
<path d="M17.2877 37.0467L15.8326 37.8666L16.1105 36.13L14.9333 34.9001L16.5601 34.6467L17.2877 33.0667L18.0152 34.6467L19.642 34.9001L18.4648 36.13L18.7427 37.8666L17.2877 37.0467Z" fill="white"/>
<path d="M11.9544 40.2467L10.4994 41.0667L10.7773 39.33L9.6001 38.1001L11.2269 37.8467L11.9544 36.2667L12.6819 37.8467L14.3087 38.1001L13.1316 39.33L13.4095 41.0667L11.9544 40.2467Z" fill="white"/>
<path d="M6.08772 35.9801L4.63267 36.8L4.91056 35.0633L3.7334 33.8334L5.36019 33.5801L6.08772 32L6.81524 33.5801L8.44204 33.8334L7.26488 35.0633L7.54277 36.8L6.08772 35.9801Z" fill="white"/>
<path d="M6.08772 44.5134L4.63267 45.3333L4.91056 43.5967L3.7334 42.3668L5.36019 42.1134L6.08772 40.5333L6.81524 42.1134L8.44204 42.3668L7.26488 43.5967L7.54277 45.3333L6.08772 44.5134Z" fill="white"/>
<path d="M18.3543 44.5134L16.8993 45.3333L17.1772 43.5967L16 42.3668L17.6268 42.1134L18.3543 40.5333L19.0818 42.1134L20.7086 42.3668L19.5315 43.5967L19.8094 45.3333L18.3543 44.5134Z" fill="white"/>
<path d="M42.8878 8.78005L41.4327 9.59999L41.7106 7.86333L40.5334 6.63342L42.1602 6.38005L42.8878 4.79999L43.6153 6.38005L45.2421 6.63343L44.0649 7.86333L44.3428 9.59999L42.8878 8.78005Z" fill="white"/>
<path d="M42.8878 17.3134L41.4327 18.1333L41.7106 16.3967L40.5334 15.1667L42.1602 14.9134L42.8878 13.3333L43.6153 14.9134L45.2421 15.1668L44.0649 16.3967L44.3428 18.1333L42.8878 17.3134Z" fill="white"/>
<path d="M42.8878 25.8467L41.4327 26.6666L41.7106 24.93L40.5334 23.7001L42.1602 23.4467L42.8878 21.8666L43.6153 23.4467L45.2421 23.7001L44.0649 24.93L44.3428 26.6666L42.8878 25.8467Z" fill="white"/>
<path d="M42.8878 34.3801L41.4327 35.2L41.7106 33.4633L40.5334 32.2334L42.1602 31.9801L42.8878 30.4L43.6153 31.9801L45.2421 32.2334L44.0649 33.4633L44.3428 35.2L42.8878 34.3801Z" fill="white"/>
<path d="M36.4876 13.58L35.0326 14.4L35.3105 12.6633L34.1333 11.4334L35.7601 11.18L36.4876 9.59998L37.2151 11.18L38.8419 11.4334L37.6648 12.6633L37.9427 14.4L36.4876 13.58Z" fill="white"/>
<path d="M36.4876 22.1134L35.0326 22.9333L35.3105 21.1967L34.1333 19.9668L35.7601 19.7134L36.4876 18.1333L37.2151 19.7134L38.8419 19.9668L37.6648 21.1967L37.9427 22.9333L36.4876 22.1134Z" fill="white"/>
<path d="M36.4876 30.6467L35.0326 31.4667L35.3105 29.73L34.1333 28.5001L35.7601 28.2467L36.4876 26.6667L37.2151 28.2467L38.8419 28.5001L37.6648 29.73L37.9427 31.4667L36.4876 30.6467Z" fill="white"/>
<path d="M36.4876 39.18L35.0326 40L35.3105 38.2633L34.1333 37.0334L35.7601 36.78L36.4876 35.2L37.2151 36.78L38.8419 37.0334L37.6648 38.2633L37.9427 40L36.4876 39.18Z" fill="white"/>
<path d="M42.8878 43.4467L41.4327 44.2666L41.7106 42.53L40.5334 41.3001L42.1602 41.0467L42.8878 39.4666L43.6153 41.0467L45.2421 41.3001L44.0649 42.53L44.3428 44.2666L42.8878 43.4467Z" fill="white"/>
<path d="M31.1544 9.84673L29.6993 10.6667L29.9772 8.93001L28.8 7.70011L30.4268 7.44673L31.1544 5.86667L31.8819 7.44673L33.5087 7.70011L32.3315 8.93001L32.6094 10.6667L31.1544 9.84673Z" fill="white"/>
<path d="M31.1544 18.3801L29.6993 19.2L29.9772 17.4633L28.8 16.2334L30.4268 15.9801L31.1544 14.4L31.8819 15.9801L33.5087 16.2334L32.3315 17.4633L32.6094 19.2L31.1544 18.3801Z" fill="white"/>
<path d="M31.1544 26.9134L29.6993 27.7333L29.9772 25.9967L28.8 24.7668L30.4268 24.5134L31.1544 22.9333L31.8819 24.5134L33.5087 24.7668L32.3315 25.9967L32.6094 27.7333L31.1544 26.9134Z" fill="white"/>
<path d="M31.1544 35.4467L29.6993 36.2666L29.9772 34.53L28.8 33.3001L30.4268 33.0467L31.1544 31.4666L31.8819 33.0467L33.5087 33.3001L32.3315 34.53L32.6094 36.2666L31.1544 35.4467Z" fill="white"/>
<path d="M24.7545 14.6467L23.2994 15.4667L23.5773 13.73L22.4001 12.5001L24.0269 12.2467L24.7545 10.6667L25.482 12.2467L27.1088 12.5001L25.9316 13.73L26.2095 15.4667L24.7545 14.6467Z" fill="white"/>
<path d="M24.7545 23.18L23.2994 24L23.5773 22.2633L22.4001 21.0334L24.0269 20.78L24.7545 19.2L25.482 20.78L27.1088 21.0334L25.9316 22.2633L26.2095 24L24.7545 23.18Z" fill="white"/>
<path d="M24.7545 31.7134L23.2994 32.5333L23.5773 30.7967L22.4001 29.5668L24.0269 29.3134L24.7545 27.7333L25.482 29.3134L27.1088 29.5668L25.9316 30.7967L26.2095 32.5333L24.7545 31.7134Z" fill="white"/>
<path d="M24.7545 40.2467L23.2994 41.0667L23.5773 39.33L22.4001 38.1001L24.0269 37.8467L24.7545 36.2667L25.482 37.8467L27.1088 38.1001L25.9316 39.33L26.2095 41.0667L24.7545 40.2467Z" fill="white"/>
<path d="M31.1544 44.5134L29.6993 45.3333L29.9772 43.5967L28.8 42.3668L30.4268 42.1134L31.1544 40.5333L31.8819 42.1134L33.5087 42.3668L32.3315 43.5967L32.6094 45.3333L31.1544 44.5134Z" fill="white"/>
<path fill-rule="evenodd" clip-rule="evenodd" d="M48 96C74.5097 96 96 74.5097 96 48C96 21.4903 74.5097 0 48 0C21.4903 0 0 21.4903 0 48C0 74.5097 21.4903 96 48 96ZM48 94C73.4051 94 94 73.4051 94 48C94 22.5949 73.4051 2 48 2C22.5949 2 2 22.5949 2 48C2 73.4051 22.5949 94 48 94Z" fill="white" fill-opacity="0.03"/>
</svg>
